# xmcd CD database file
#
# Track frame offsets:
#	150
#	25670
#	52802
#	81862
#	103725
#	126597
#	148875
#	176920
#	203932
#
# Disc length: 3111 seconds
#
# Revision: 0
# Processed by: cddbd v1.5.1PL0 Copyright (c) Steve Scherf et al.
# Submitted via: CDex 1.51
#
DISCID=820c2509
DTITLE=ハシケン - 限りなくあの空に近い
DYEAR=2000
DGENRE=Vocal
TTITLE0=Shake me, Shake you
TTITLE1=夕映え
TTITLE2=エイチャー
TTITLE3=走る人
TTITLE4=頭不足
TTITLE5=かいされヨー
TTITLE6=明日の孤独
TTITLE7=気楽にラフにクールに
TTITLE8=限りなくあの空に近い
EXTD=YEAR: 2000
EXTT0=
EXTT1=
EXTT2=
EXTT3=
EXTT4=
EXTT5=
EXTT6=
EXTT7=
EXTT8=
PLAYORDER=
